<svg width="492" height="487" viewBox="0 0 492 487" fill="none" xmlns="http://www.w3.org/2000/svg">
<path d="M481.765 218.422L276.474 13.123C259.507 -3.79503 231.917 -3.81903 214.915 13.146L9.62601 218.422C-3.20899 231.255 -3.20899 252.072 9.62601 264.905C22.469 277.747 43.272 277.747 56.113 264.905L83.941 237.073V451.945C83.941 471.288 99.623 486.969 118.968 486.969H193.794V389.349C193.794 381.765 199.94 375.608 207.537 375.608H283.889C291.479 375.608 297.628 381.765 297.628 389.349V486.97H372.441C391.787 486.97 407.468 471.289 407.468 451.946V237.091L435.28 264.906C441.705 271.327 450.113 274.536 458.523 274.536C466.931 274.536 475.342 271.327 481.765 264.906C494.609 252.072 494.609 231.256 481.765 218.422Z" fill="#00BBC9"/>
</svg>
