<svg width="576" height="320" viewBox="0 0 576 320" fill="none" xmlns="http://www.w3.org/2000/svg">
<path d="M384 64C366.3 64 352 49.7 352 32C352 14.3 366.3 0 384 0H544C561.7 0 576 14.3 576 32V192C576 209.7 561.7 224 544 224C526.3 224 512 209.7 512 192V109.3L342.6 278.6C330.1 291.1 309.8 291.1 297.3 278.6L192 173.3L54.6 310.6C42.1 323.1 21.8 323.1 9.29999 310.6C-3.20001 298.1 -3.20001 277.8 9.29999 265.3L169.3 105.3C181.8 92.8 202.1 92.8 214.6 105.3L320 210.7L466.7 64H384Z" fill="#00BBC9"/>
</svg>
